<?xml version="1.0" standalone="no"?>
<!DOCTYPE svg PUBLIC "-//W3C//DTD SVG 20010904//EN"
 "http://www.w3.org/TR/2001/REC-SVG-20010904/DTD/svg10.dtd">
<svg version="1.0" xmlns="http://www.w3.org/2000/svg"
 width="500.000000pt" height="500.000000pt" viewBox="0 0 500.000000 500.000000"
 preserveAspectRatio="xMidYMid meet">

<g transform="translate(0.000000,500.000000) scale(0.100000,-0.100000)"
fill="#000000" stroke="none">
<path d="M0 2500 l0 -2500 2500 0 2500 0 0 2500 0 2500 -2500 0 -2500 0 0
-2500z m1628 407 l3 -128 32 23 c26 18 45 23 98 23 56 0 71 -4 101 -27 51 -39
71 -98 66 -190 -7 -126 -60 -192 -164 -204 -40 -5 -57 -1 -97 20 -58 31 -57
31 -57 6 0 -16 -7 -20 -35 -20 l-35 0 0 285 0 285 -30 0 c-25 0 -30 4 -30 24
0 21 6 25 38 29 20 2 53 4 72 3 l35 -1 3 -128z m-751 92 c57 -30 83 -63 90
-116 4 -33 1 -45 -16 -62 -31 -31 -80 -25 -101 12 -14 25 -13 30 3 59 19 32
19 33 -6 54 -82 70 -230 12 -265 -103 -28 -94 -9 -265 36 -318 43 -50 73 -65
135 -65 72 0 117 24 141 75 14 29 22 35 48 35 28 0 30 -2 23 -27 -11 -44 -40
-77 -97 -108 -46 -26 -63 -30 -133 -30 -70 0 -87 4 -134 30 -102 56 -147 154
-139 304 8 153 77 244 213 282 52 14 152 3 202 -22z m2943 -54 l0 -35 -140 0
-140 0 0 35 0 35 140 0 140 0 0 -35z m-1521 -145 c42 -29 62 -71 68 -142 l6
-58 -142 0 -141 0 0 -26 c0 -105 122 -162 190 -89 27 28 70 34 70 9 0 -25 -53
-71 -96 -83 -174 -48 -305 97 -253 282 13 48 72 114 113 127 52 16 150 6 185
-20z m266 4 c11 -22 11 -22 38 -2 66 48 137 28 137 -39 0 -26 -6 -36 -25 -45
-33 -15 -75 3 -75 32 0 25 -11 25 -44 -1 l-27 -21 3 -131 3 -132 43 -3 c37 -3
42 -6 42 -28 l0 -24 -121 0 c-118 0 -120 0 -117 22 2 14 12 24 28 28 l25 6 0
149 0 150 -27 3 c-46 5 -36 37 15 50 60 14 90 10 102 -14z m1165 -159 l5 -180
28 -3 c21 -3 27 -9 27 -28 0 -24 0 -24 -106 -24 -103 0 -105 0 -102 22 2 14
12 24 28 28 l25 6 0 149 0 150 -27 3 c-19 2 -28 9 -28 21 0 20 62 40 115 38
l30 -2 5 -180z m251 161 l11 -24 36 21 c25 15 53 21 95 22 51 0 62 -3 82 -27
l22 -26 58 29 c89 45 154 37 191 -24 15 -26 20 -58 24 -172 5 -136 6 -140 28
-143 16 -3 22 -10 22 -28 0 -24 -1 -24 -96 -24 -93 0 -95 1 -92 23 2 14 11 23
26 25 22 3 22 6 22 136 0 121 -2 134 -21 155 -18 19 -29 22 -59 18 -21 -2 -50
-13 -65 -23 -25 -16 -27 -22 -21 -62 3 -25 6 -84 6 -133 0 -83 1 -88 23 -91
14 -2 23 -11 25 -25 3 -23 1 -23 -98 -23 -99 0 -101 1 -98 22 2 14 12 24 28
28 l25 6 0 133 c0 129 -1 133 -25 153 -28 23 -75 20 -116 -7 -24 -16 -25 -18
-22 -147 3 -132 3 -132 28 -138 16 -4 26 -14 28 -28 3 -22 1 -22 -103 -22
-104 0 -106 0 -103 22 2 14 12 24 28 28 l25 6 3 138 c3 144 -2 166 -39 166
-12 0 -19 7 -19 18 0 14 12 21 48 29 73 16 82 15 93 -11z m-2741 -6 c0 -13 -7
-20 -19 -20 -28 0 -51 -10 -51 -24 0 -6 23 -76 51 -154 l52 -144 54 143 c29
79 51 149 48 156 -2 8 -18 16 -35 19 -21 5 -30 12 -30 25 0 17 9 19 95 19 87
0 95 -2 95 -19 0 -11 -9 -21 -23 -25 -29 -7 -34 -17 -103 -201 -102 -274 -149
-353 -220 -371 -78 -20 -147 63 -97 118 35 39 100 3 87 -49 -9 -33 9 -28 44
12 42 47 51 98 25 134 -11 14 -49 98 -84 185 -48 119 -70 161 -86 169 -13 6
-23 18 -23 29 0 16 10 18 110 18 103 0 110 -1 110 -20z m768 -812 c-2 -19 -10
-24 -40 -26 l-38 -3 0 -105 0 -104 -25 0 -25 0 0 104 0 105 -32 3 c-25 2 -34
8 -36 26 -3 22 -1 22 98 22 99 0 101 0 98 -22z m382 2 c0 -16 -8 -19 -62 -22
-63 -3 -63 -3 -63 -33 0 -28 3 -30 43 -33 34 -3 42 -7 42 -23 0 -16 -7 -19
-45 -19 -43 0 -45 -1 -45 -30 0 -29 1 -29 63 -32 56 -3 62 -5 65 -25 3 -22 1
-23 -87 -23 l-91 0 0 130 0 130 90 0 c83 0 90 -2 90 -20z m364 -1 c35 -28 36
-69 1 -69 -15 0 -25 6 -25 15 0 14 -29 35 -49 35 -26 0 -41 -33 -41 -90 0 -57
15 -90 41 -90 20 0 49 21 49 35 0 9 10 15 25 15 33 0 33 -32 0 -65 -18 -19
-35 -25 -67 -25 -74 1 -98 35 -98 138 0 59 3 73 25 96 31 34 99 37 139 5z
m286 -35 l0 -55 43 3 42 3 3 53 c3 48 5 52 28 52 l24 0 0 -130 0 -130 -25 0
c-24 0 -25 3 -25 55 l0 55 -45 0 -45 0 0 -55 c0 -52 -1 -55 -25 -55 l-25 0 0
130 0 130 25 0 c24 0 25 -3 25 -56z"/>
<path d="M1678 2753 c-72 -76 -57 -260 24 -294 95 -39 167 92 127 235 -23 84
-99 114 -151 59z"/>
<path d="M2130 2760 c-24 -24 -40 -62 -40 -96 0 -24 1 -24 90 -24 l90 0 0 44
c0 62 -29 96 -81 96 -26 0 -46 -7 -59 -20z"/>
</g>
</svg>
